<svg width="30" height="30" viewBox="0 0 30 30" fill="none" xmlns="http://www.w3.org/2000/svg">
<path d="M27.0658 22.42L17.1014 4.98234C16.8842 4.59897 16.5691 4.28008 16.1884 4.05823C15.8076 3.83637 15.3749 3.71948 14.9342 3.71948C14.4935 3.71948 14.0608 3.83637 13.68 4.05823C13.2993 4.28008 12.9842 4.59897 12.7669 4.98234L2.80255 22.42C2.58294 22.8004 2.46778 23.232 2.46876 23.6712C2.46973 24.1104 2.5868 24.5415 2.80809 24.9209C3.02938 25.3002 3.34704 25.6143 3.72886 25.8314C4.11068 26.0484 4.54309 26.1606 4.98226 26.1567H24.911C25.3481 26.1562 25.7774 26.0408 26.1557 25.822C26.534 25.6031 26.8481 25.2886 27.0665 24.91C27.2848 24.5314 27.3997 24.102 27.3996 23.6649C27.3995 23.2279 27.2844 22.7985 27.0658 22.42Z" stroke="#FF6621" stroke-width="1.718" stroke-linecap="round" stroke-linejoin="round"/>
<path d="M14.9468 11.21V16.1922" stroke="#FF6621" stroke-width="1.718" stroke-linecap="round" stroke-linejoin="round"/>
<path d="M14.9468 21.1746H14.9589" stroke="#FF6621" stroke-width="1.718" stroke-linecap="round" stroke-linejoin="round"/>
</svg>
