<svg width="30" height="30" viewBox="0 0 30 30" fill="none" xmlns="http://www.w3.org/2000/svg">
<path d="M18.6835 2.49121H7.47352C6.81284 2.49121 6.17922 2.75366 5.71205 3.22084C5.24488 3.68801 4.98242 4.32163 4.98242 4.98231V24.9111C4.98242 25.5718 5.24488 26.2054 5.71205 26.6726C6.17922 27.1397 6.81284 27.4022 7.47352 27.4022H22.4201C23.0808 27.4022 23.7144 27.1397 24.1816 26.6726C24.6487 26.2054 24.9112 25.5718 24.9112 24.9111V8.71895L18.6835 2.49121Z" stroke="#FF6621" stroke-width="1.718" stroke-linecap="round" stroke-linejoin="round"/>
<path d="M17.4375 2.49121V7.47341C17.4375 8.13409 17.7 8.76771 18.1671 9.23488C18.6343 9.70205 19.2679 9.9645 19.9286 9.9645H24.9108" stroke="#FF6621" stroke-width="1.718" stroke-linecap="round" stroke-linejoin="round"/>
<path d="M18.0603 15.5695L11.8325 21.7972" stroke="#FF6621" stroke-width="1.718" stroke-linecap="round" stroke-linejoin="round"/>
<path d="M11.8325 15.5695L18.0603 21.7972" stroke="#FF6621" stroke-width="1.718" stroke-linecap="round" stroke-linejoin="round"/>
</svg>
