<svg width="30" height="30" viewBox="0 0 30 30" fill="none" xmlns="http://www.w3.org/2000/svg">
<path d="M26.1569 8.71883H22.4203C21.7596 8.71883 21.126 8.45638 20.6588 7.98921C20.1917 7.52203 19.9292 6.88841 19.9292 6.22773V2.49109" stroke="#FF6621" stroke-width="1.718" stroke-linecap="round" stroke-linejoin="round"/>
<path d="M26.1562 7.47328V15.5693C26.1562 16.5658 25.2843 17.4377 24.2878 17.4377H15.569C14.5726 17.4377 13.7007 16.5658 13.7007 15.5693V4.35941C13.7007 3.36297 14.5726 2.49109 15.569 2.49109H21.174L26.1562 7.47328Z" stroke="#FF6621" stroke-width="1.718" stroke-linecap="round" stroke-linejoin="round"/>
<path d="M8.71924 9.96436V20.9252C8.71924 21.2988 8.96835 21.6725 9.21746 21.9216C9.46657 22.1707 9.84023 22.4198 10.2139 22.4198H18.6836" stroke="#FF6621" stroke-width="1.718" stroke-linecap="round" stroke-linejoin="round"/>
<path d="M3.73682 14.9464V25.9072C3.73682 26.2809 3.98593 26.6546 4.23504 26.9037C4.48415 27.1528 4.85781 27.4019 5.23147 27.4019H13.7012" stroke="#FF6621" stroke-width="1.718" stroke-linecap="round" stroke-linejoin="round"/>
</svg>
