<svg width="19" height="19" viewBox="0 0 19 19" fill="none" xmlns="http://www.w3.org/2000/svg">
<path d="M12.3694 2.31934C11.9594 2.31934 11.5661 2.48224 11.2761 2.77221C10.9861 3.06218 10.8232 3.45546 10.8232 3.86553V8.50413C10.8232 8.91421 10.9861 9.30749 11.2761 9.59746C11.5661 9.88742 11.9594 10.0503 12.3694 10.0503C12.5745 10.0503 12.7711 10.1318 12.9161 10.2768C13.0611 10.4217 13.1425 10.6184 13.1425 10.8234V11.5965C13.1425 12.0066 12.9796 12.3999 12.6897 12.6899C12.3997 12.9798 12.0064 13.1427 11.5963 13.1427C11.3913 13.1427 11.1947 13.2242 11.0497 13.3692C10.9047 13.5141 10.8232 13.7108 10.8232 13.9158V15.462C10.8232 15.6671 10.9047 15.8637 11.0497 16.0087C11.1947 16.1537 11.3913 16.2351 11.5963 16.2351C12.8266 16.2351 14.0064 15.7464 14.8763 14.8765C15.7462 14.0066 16.2349 12.8268 16.2349 11.5965V3.86553C16.2349 3.45546 16.072 3.06218 15.7821 2.77221C15.4921 2.48224 15.0988 2.31934 14.6887 2.31934H12.3694Z" stroke="#01AB9D" stroke-width="1.5462" stroke-linecap="round" stroke-linejoin="round"/>
<path d="M3.86553 2.31934C3.45546 2.31934 3.06218 2.48224 2.77221 2.77221C2.48224 3.06218 2.31934 3.45546 2.31934 3.86553V8.50413C2.31934 8.91421 2.48224 9.30749 2.77221 9.59746C3.06218 9.88742 3.45546 10.0503 3.86553 10.0503C4.07057 10.0503 4.26721 10.1318 4.4122 10.2768C4.55718 10.4217 4.63863 10.6184 4.63863 10.8234V11.5965C4.63863 12.0066 4.47573 12.3999 4.18576 12.6899C3.89579 12.9798 3.50251 13.1427 3.09244 13.1427C2.8874 13.1427 2.69076 13.2242 2.54577 13.3692C2.40079 13.5141 2.31934 13.7108 2.31934 13.9158V15.462C2.31934 15.6671 2.40079 15.8637 2.54577 16.0087C2.69076 16.1537 2.8874 16.2351 3.09244 16.2351C4.32267 16.2351 5.50251 15.7464 6.37242 14.8765C7.24232 14.0066 7.73103 12.8268 7.73103 11.5965V3.86553C7.73103 3.45546 7.56813 3.06218 7.27816 2.77221C6.98819 2.48224 6.59491 2.31934 6.18483 2.31934H3.86553Z" stroke="#01AB9D" stroke-width="1.5462" stroke-linecap="round" stroke-linejoin="round"/>
</svg>
